<svg width="21" height="21" xmlns="http://www.w3.org/2000/svg" xmlns:xlink="http://www.w3.org/1999/xlink" xml:space="preserve" overflow="hidden"><g transform="translate(-550 -168)"><path d="M560.303 185.741 563.431 182.613 567.872 186.222C567.959 186.309 568.112 186.288 568.2 186.2 568.287 186.113 568.287 185.981 568.222 185.872L564.612 181.453 567.741 178.325C567.981 178.084 568.047 177.734 567.938 177.406 567.828 177.078 567.522 176.859 567.194 176.837 566.319 176.75 565.247 177.034 564.153 177.625L559.516 173.906C559.909 173.141 560.084 172.288 560.019 171.434 559.931 170.822 559.166 170.494 558.75 170.909L552.909 176.75C552.494 177.166 552.822 177.931 553.434 178.019 554.287 178.084 555.141 177.931 555.906 177.516L559.625 182.153C559.034 183.247 558.772 184.319 558.838 185.194 558.859 185.522 559.078 185.828 559.406 185.938 559.713 186.069 560.062 185.981 560.303 185.741Z" fill="#FFFFFF"/></g></svg>